<svg xmlns="http://www.w3.org/2000/svg" xmlns:xlink="http://www.w3.org/1999/xlink" width="284.743" height="61.957" viewBox="0 0 284.743 61.957"><defs><style>.a{fill:none;}.b{fill:url(#a);}.c{fill:url(#b);}.d{fill:url(#c);}.e{fill:url(#d);}.f{fill:url(#e);}.g{fill:url(#f);}.h{fill:url(#g);}.i{fill:url(#h);}.j{fill:url(#i);}.k{fill:url(#j);}.l{fill:url(#k);}.m{fill:url(#l);}.n{fill:url(#m);}.o{clip-path:url(#n);}.p{fill:#666;opacity:0.47;mix-blend-mode:multiply;isolation:isolate;}</style><linearGradient id="a" x1="-23.198" y1="0.031" x2="-3.392" y2="0.423" gradientUnits="objectBoundingBox"><stop offset="0" stop-color="#004162"/><stop offset="1" stop-color="#00884e"/></linearGradient><linearGradient id="b" x1="0.608" y1="0.504" x2="5.375" y2="0.578" xlink:href="#a"/><linearGradient id="c" x1="-2.577" y1="0.489" x2="19.133" y2="0.564" xlink:href="#a"/><linearGradient id="d" x1="-1.17" y1="0.468" x2="4.393" y2="0.564" xlink:href="#a"/><linearGradient id="e" x1="-1.441" y1="0.447" x2="1.87" y2="0.543" gradientUnits="objectBoundingBox"><stop offset="0" stop-color="#004162"/><stop offset="0.499" stop-color="#006458"/><stop offset="1" stop-color="#00884e"/></linearGradient><linearGradient id="f" x1="-3.762" y1="0.418" x2="1.117" y2="0.512" xlink:href="#a"/><linearGradient id="g" x1="-6.934" y1="0.398" x2="-0.094" y2="0.494" xlink:href="#a"/><linearGradient id="h" x1="-0.093" y1="0.263" x2="0.749" y2="0.599" gradientUnits="objectBoundingBox"><stop offset="0" stop-color="#0070b8"/><stop offset="0.603" stop-color="#00498f"/><stop offset="1" stop-color="#002b91"/></linearGradient><linearGradient id="i" x1="-0.846" y1="0.668" x2="0.877" y2="0.453" gradientUnits="objectBoundingBox"><stop offset="0.339" stop-color="#00d951"/><stop offset="0.707" stop-color="#00cabb"/><stop offset="1" stop-color="#00c2e6"/></linearGradient><linearGradient id="j" x1="-0.014" y1="-0.301" x2="0.704" y2="0.588" xlink:href="#a"/><linearGradient id="k" x1="0.5" y1="-0.011" x2="0.5" y2="1.55" gradientUnits="objectBoundingBox"><stop offset="0.099" stop-color="#b6e11d"/><stop offset="0.619" stop-color="#00dc52"/><stop offset="0.973" stop-color="#00cabb"/></linearGradient><linearGradient id="l" x1="0.559" y1="0.882" x2="-0.09" y2="-0.963" gradientUnits="objectBoundingBox"><stop offset="0" stop-color="#0070b8"/><stop offset="0.389" stop-color="#00498f"/><stop offset="1" stop-color="#004c91"/></linearGradient><linearGradient id="m" x1="0.057" y1="0.607" x2="0.986" y2="0.414" gradientUnits="objectBoundingBox"><stop offset="0" stop-color="#00cda0"/><stop offset="0.513" stop-color="#00cabb"/><stop offset="1" stop-color="#00c2e6"/></linearGradient><clipPath id="n"><path class="a" d="M1149.066,188.7a47.622,47.622,0,0,1-18.235-3.532,39.237,39.237,0,0,1-12.083-7.9c-4.974-5.11-6.219-9.341-6.219-9.341l-8.141.069a9.089,9.089,0,0,0-6.068,3.283c-2.494,3.095-2.442,6.165-1.658,9.127a17.983,17.983,0,0,0,4.195,6.884c6.219,7.082,17.181,11.584,29.673,11.789,12.331.2,23.938-4.5,30.278-11.789A48.733,48.733,0,0,1,1149.066,188.7Z" transform="translate(-1096.184 -167.922)"/></clipPath></defs><g transform="translate(-1096.184 -124.905)"><g transform="translate(1181.573 136.112)"><g transform="translate(191.905 5.306)"><path class="b" d="M1489.137,148.456a3.523,3.523,0,0,1,1.334,1.334,3.88,3.88,0,0,1-.011,3.777,3.646,3.646,0,0,1-1.35,1.356,3.833,3.833,0,0,1-3.772,0,3.638,3.638,0,0,1-1.34-1.35,3.842,3.842,0,0,1,0-3.756,3.621,3.621,0,0,1,1.345-1.351,3.908,3.908,0,0,1,3.794-.01Zm-.269,6.056a3.162,3.162,0,0,0,1.166-1.182,3.442,3.442,0,0,0,.011-3.3,3.045,3.045,0,0,0-1.15-1.16,3.406,3.406,0,0,0-3.3.011,3.123,3.123,0,0,0-1.166,1.176,3.4,3.4,0,0,0,0,3.282,3.134,3.134,0,0,0,1.161,1.176,3.329,3.329,0,0,0,3.282,0Zm.031-2.68a1.285,1.285,0,0,1-.654.485l.96,1.488h-.727l-.876-1.351h-1.15v1.351h-.717v-4.221h1.688a1.864,1.864,0,0,1,1.25.391,1.3,1.3,0,0,1,.459,1.045A1.4,1.4,0,0,1,1488.9,151.832Zm-.744-.19a.75.75,0,0,0,.28-.622.735.735,0,0,0-.28-.617,1.255,1.255,0,0,0-.786-.217h-.929v1.678h.929A1.234,1.234,0,0,0,1488.156,151.642Z" transform="translate(-1483.508 -147.97)"/></g><g transform="translate(0)"><path class="c" d="M1221.943,178.136a3.851,3.851,0,0,1-.462,1.066,1.1,1.1,0,0,1-.959.355h-3.575q-1.492,0-1.491-1.421V141.979a1.341,1.341,0,0,1,.427-1.018,1.375,1.375,0,0,1,.97-.4h3.907a1.48,1.48,0,0,1,1.113.415,1.394,1.394,0,0,1,.4,1.006v10.868a13.389,13.389,0,0,1,3.918-2.794,11.813,11.813,0,0,1,5.079-1.042,14.571,14.571,0,0,1,5.955,1.219,15.224,15.224,0,0,1,4.807,3.327,15.391,15.391,0,0,1,3.208,4.937,16.409,16.409,0,0,1,0,12.123,15.376,15.376,0,0,1-3.208,4.937,15.2,15.2,0,0,1-4.807,3.327,14.559,14.559,0,0,1-5.955,1.219,11.419,11.419,0,0,1-2.676-.307,13.3,13.3,0,0,1-2.438-.841,12.506,12.506,0,0,1-2.166-1.266,15.447,15.447,0,0,1-1.835-1.563Zm17.806-13.567a9.787,9.787,0,0,0-.663-3.576,9.46,9.46,0,0,0-1.847-3,9.063,9.063,0,0,0-2.794-2.06,7.975,7.975,0,0,0-3.481-.77,8.419,8.419,0,0,0-3.564.77,9.519,9.519,0,0,0-4.865,5.055,9.2,9.2,0,0,0-.71,3.576v.165a8.79,8.79,0,0,0,.757,3.516,9.63,9.63,0,0,0,1.965,2.889,9.211,9.211,0,0,0,2.877,1.965,8.708,8.708,0,0,0,3.54.722,8.287,8.287,0,0,0,3.481-.734,8.847,8.847,0,0,0,2.794-1.989,9.07,9.07,0,0,0,1.847-2.948A9.749,9.749,0,0,0,1239.748,164.569Z" transform="translate(-1215.455 -140.559)"/><path class="d" d="M1266.222,141.979a1.547,1.547,0,0,1,.332-1.018,1.243,1.243,0,0,1,1.018-.4h4.143a1.264,1.264,0,0,1,.888.4,1.362,1.362,0,0,1,.415,1.018v36.156a1.369,1.369,0,0,1-.391,1.066,1.51,1.51,0,0,1-1.054.355h-3.954a1.4,1.4,0,0,1-1.077-.355,1.549,1.549,0,0,1-.319-1.066Z" transform="translate(-1229.877 -140.559)"/><path class="e" d="M1311.147,182.081a.485.485,0,0,1-.177.4,1.071,1.071,0,0,1-.439.2,2.98,2.98,0,0,1-.568.071c-.206.009-.387.012-.544.012h-2.392a1.194,1.194,0,0,1-1.018-.438,2.466,2.466,0,0,1-.45-1.007l-.261-2.154a8.459,8.459,0,0,1-3.149,2.782,10.616,10.616,0,0,1-2.451.888,13.511,13.511,0,0,1-3.138.331,11.613,11.613,0,0,1-4.971-1.007,10.327,10.327,0,0,1-3.611-2.746,12.031,12.031,0,0,1-2.214-4.108,16.627,16.627,0,0,1-.757-5.091V154.426a1.846,1.846,0,0,1,.4-1.291,1.5,1.5,0,0,1,1.161-.438h3.6a1.7,1.7,0,0,1,1.266.355,1.889,1.889,0,0,1,.319,1.255V170.1a7.835,7.835,0,0,0,.392,2.451,6.505,6.505,0,0,0,1.172,2.143,5.737,5.737,0,0,0,1.954,1.516,6.2,6.2,0,0,0,2.734.568,7.449,7.449,0,0,0,2.273-.379,6.628,6.628,0,0,0,2.155-1.161,6.428,6.428,0,0,0,1.61-1.953,5.623,5.623,0,0,0,.639-2.735V155.183a7.869,7.869,0,0,1,.047-.864,2.844,2.844,0,0,1,.2-.805,1.51,1.51,0,0,1,.426-.592,1.138,1.138,0,0,1,.746-.225h3.908a1.542,1.542,0,0,1,1.148.379,1.471,1.471,0,0,1,.366,1.066v27.229A.783.783,0,0,1,1311.147,182.081Z" transform="translate(-1235.213 -144.007)"/><path class="f" d="M1331.979,153.136a3.4,3.4,0,0,1,1.5-.3h2.391a1.177,1.177,0,0,1,1.018.452,2.588,2.588,0,0,1,.45,1l.261,2.282a12,12,0,0,1,1.255-1.556,7.5,7.5,0,0,1,1.692-1.319,9.23,9.23,0,0,1,2.3-.915,12.169,12.169,0,0,1,3.067-.345,13.051,13.051,0,0,1,3.007.321,9,9,0,0,1,2.439.951,8.812,8.812,0,0,1,1.964,1.544,11.749,11.749,0,0,1,1.587,2.1,7.566,7.566,0,0,1,1.538-2.044,9.576,9.576,0,0,1,2.238-1.58,12.036,12.036,0,0,1,2.782-1.01,13.7,13.7,0,0,1,3.149-.357,11.221,11.221,0,0,1,4.913,1.018,10.026,10.026,0,0,1,3.54,2.794,12.32,12.32,0,0,1,2.143,4.144,17.3,17.3,0,0,1,.722,5.067v15.793a1.846,1.846,0,0,1-.4,1.291,1.5,1.5,0,0,1-1.16.438h-3.6a1.7,1.7,0,0,1-1.266-.355,1.884,1.884,0,0,1-.319-1.254v-15.9a8.449,8.449,0,0,0-.355-2.437,6,6,0,0,0-1.1-2.093,5.578,5.578,0,0,0-1.871-1.466,6.006,6.006,0,0,0-2.687-.556,6.234,6.234,0,0,0-2.415.461,5.437,5.437,0,0,0-1.919,1.324,6.275,6.275,0,0,0-1.266,2.082,7.586,7.586,0,0,0-.462,2.708v15.777q0,1.7-1.539,1.7h-3.622a1.651,1.651,0,0,1-1.255-.355,1.937,1.937,0,0,1-.308-1.254V165.43a8.483,8.483,0,0,0-.344-2.4,6.192,6.192,0,0,0-1.065-2.093,5.358,5.358,0,0,0-1.858-1.49,5.978,5.978,0,0,0-2.7-.568,6.086,6.086,0,0,0-2.178.414,6.424,6.424,0,0,0-1.977,1.195,6.211,6.211,0,0,0-1.456,1.916,5.892,5.892,0,0,0-.592,2.578v16.535a1.339,1.339,0,0,1-.4,1,1.4,1.4,0,0,1-1.018.391h-3.907a1.568,1.568,0,0,1-1.148-.367,1.424,1.424,0,0,1-.367-1.054V154.237A1.112,1.112,0,0,1,1331.979,153.136Z" transform="translate(-1248.385 -143.913)"/><path class="g" d="M1426.358,179.6a16.939,16.939,0,0,1-4.558,2.794,14.152,14.152,0,0,1-5.434,1.018,15.435,15.435,0,0,1-6.061-1.208,15.865,15.865,0,0,1-8.441-8.252,14.742,14.742,0,0,1-1.267-6.1,15.883,15.883,0,0,1,2-7.755,15.356,15.356,0,0,1,2.333-3.149A14.757,14.757,0,0,1,1408,154.5a14.928,14.928,0,0,1,3.67-1.574,15.335,15.335,0,0,1,4.179-.557,14.6,14.6,0,0,1,3.552.438,15.6,15.6,0,0,1,3.326,1.244,15.782,15.782,0,0,1,2.948,1.953,14.214,14.214,0,0,1,2.415,2.593,14,14,0,0,1,2.084,4.286,18.328,18.328,0,0,1,.663,5.091,9.305,9.305,0,0,1-.059,1.148,1.421,1.421,0,0,1-.3.745,1.365,1.365,0,0,1-.71.415,5.265,5.265,0,0,1-1.327.13h-21a8.012,8.012,0,0,0,1.173,3.019,9.061,9.061,0,0,0,2.048,2.226,8.66,8.66,0,0,0,2.581,1.373,8.859,8.859,0,0,0,2.794.462,9.613,9.613,0,0,0,2.048-.213,10.567,10.567,0,0,0,1.835-.568,10.114,10.114,0,0,0,1.574-.816,9.291,9.291,0,0,0,1.267-.959.021.021,0,0,1,.024-.024,3.357,3.357,0,0,1,.544-.415.97.97,0,0,1,1.031-.011,1.7,1.7,0,0,1,.532.473q.64.782,1.09,1.3t.734.876a3.591,3.591,0,0,1,.415.616,1.158,1.158,0,0,1,.13.521A1.78,1.78,0,0,1,1426.358,179.6Zm-10.513-21.358a7.537,7.537,0,0,0-2.723.51,9.137,9.137,0,0,0-2.427,1.385,9.54,9.54,0,0,0-1.918,2.06,8.424,8.424,0,0,0-1.2,2.557h16.764a9.141,9.141,0,0,0-1.148-2.64,8.456,8.456,0,0,0-1.859-2.06,8.2,8.2,0,0,0-2.486-1.337A9.307,9.307,0,0,0,1415.845,158.238Z" transform="translate(-1268.049 -143.913)"/><path class="h" d="M1450.636,154.255a1.23,1.23,0,0,1,.463-1.042,1.624,1.624,0,0,1,1.01-.355h3.017a1.132,1.132,0,0,1,.9.355,2.47,2.47,0,0,1,.475.876,6.039,6.039,0,0,1,.237,1.125q.071.6.167,1.1a13.98,13.98,0,0,1,1.174-1.433,8.067,8.067,0,0,1,1.479-1.243,7.575,7.575,0,0,1,1.871-.876,7.814,7.814,0,0,1,2.368-.331,13.388,13.388,0,0,1,2.13.154,9.707,9.707,0,0,1,1.811.474,9.6,9.6,0,0,1,1.693.828q.829.51,1.775,1.2a3.426,3.426,0,0,1,.7.591,1.136,1.136,0,0,1,.3.782c-.016.127-.039.26-.071.4a1.266,1.266,0,0,1-.189.426L1470,160.364a1.193,1.193,0,0,1-.876.45,1.541,1.541,0,0,1-.734-.189q-.782-.426-1.421-.805a12.047,12.047,0,0,0-1.255-.651,7.261,7.261,0,0,0-1.266-.426,6.361,6.361,0,0,0-1.456-.154,5.049,5.049,0,0,0-3.564,1.35,6.811,6.811,0,0,0-1.953,3.717v17.853q0,1.421-1.473,1.421h-3.9q-1.473,0-1.473-1.421Z" transform="translate(-1282.265 -143.932)"/></g></g><g transform="translate(1096.184 124.905)"><circle class="i" cx="9.341" cy="9.341" r="9.341" transform="translate(2.002)"/><circle class="j" cx="9.341" cy="9.341" r="9.341" transform="translate(48.563)"/><path class="k" d="M1132.685,192.005a47.619,47.619,0,0,1-18.234,3.532,49.1,49.1,0,0,1-11.74-1.409c6.219,7.082,17.182,11.584,29.673,11.789,12.331.2,23.938-4.5,30.278-11.789a48.734,48.734,0,0,1-11.74,1.409A47.624,47.624,0,0,1,1132.685,192.005Z" transform="translate(-1098.038 -143.967)"/><path class="l" d="M1119.015,167.922a26.511,26.511,0,0,0,4.938,7.982,36.524,36.524,0,0,0,13.364,9.26,36.526,36.526,0,0,0,13.365-9.26,26.511,26.511,0,0,0,4.938-7.982Z" transform="translate(-1102.67 -137.125)"/><path class="m" d="M1130.831,185.164a39.246,39.246,0,0,1-12.083-7.9c-4.974-5.11-6.219-9.341-6.219-9.341l-8.141.069a9.089,9.089,0,0,0-6.068,3.283c-2.494,3.095-2.442,6.165-1.658,9.127a17.983,17.983,0,0,0,4.195,6.884S1115.744,191.609,1130.831,185.164Z" transform="translate(-1096.184 -137.125)"/><path class="n" d="M1144.579,185.164a39.244,39.244,0,0,0,12.083-7.9c4.974-5.11,6.219-9.341,6.219-9.341l8.141.069a9.089,9.089,0,0,1,6.068,3.283c2.494,3.095,2.442,6.165,1.657,9.127a17.974,17.974,0,0,1-4.194,6.884S1159.667,191.609,1144.579,185.164Z" transform="translate(-1109.932 -137.125)"/><g transform="translate(0 30.797)"><g class="o"><ellipse class="p" cx="41.339" cy="29.004" rx="41.339" ry="29.004" transform="translate(12.141 -36.343)"/></g></g></g></g></svg>