<svg xmlns="http://www.w3.org/2000/svg" width="18.848" height="12.505" viewBox="0 0 18.848 12.505"><defs><style>.a{fill:#cbcbcb;}</style></defs><g transform="translate(-522.081 -1401.521)"><g transform="translate(522.081 1401.521)"><path class="a" d="M531.509,1401.522a10.408,10.408,0,0,1,6.582,2.42,13.334,13.334,0,0,1,2.377,2.5,2.138,2.138,0,0,1,0,2.648A12.444,12.444,0,0,1,535.9,1413a9.779,9.779,0,0,1-5.115,1,10.522,10.522,0,0,1-5.885-2.419,13.374,13.374,0,0,1-2.4-2.541,2.109,2.109,0,0,1-.039-2.47,12.3,12.3,0,0,1,4.588-3.987A9.763,9.763,0,0,1,531.509,1401.522Zm0,11.083c.165-.013.33-.031.5-.037a7.976,7.976,0,0,0,2.666-.585,10.622,10.622,0,0,0,4.587-3.658.769.769,0,0,0,0-1.113,11.609,11.609,0,0,0-1.85-1.991,8.887,8.887,0,0,0-6.375-2.25,8.464,8.464,0,0,0-3.2.811,10.79,10.79,0,0,0-4.059,3.417.778.778,0,0,0,0,1.146,11.816,11.816,0,0,0,1.821,1.959A9.106,9.106,0,0,0,531.509,1412.605Z" transform="translate(-522.081 -1401.521)"/><path class="a" d="M663.724,1472.385a3.481,3.481,0,0,1,0-6.961,3.418,3.418,0,0,1,3.464,3.679A3.283,3.283,0,0,1,663.724,1472.385Zm2.047-3.471a1.966,1.966,0,0,0-2.042-2.055,2.05,2.05,0,0,0-.031,4.1A1.961,1.961,0,0,0,665.771,1468.915Z" transform="translate(-654.288 -1462.66)"/></g></g></svg>